<mxfile host="app.diagrams.net" modified="2023-09-15T02:27:48.705Z" agent="Mozilla/5.0 (Macintosh; Intel Mac OS X 10_15_7) AppleWebKit/537.36 (KHTML, like Gecko) Chrome/116.0.0.0 Safari/537.36" etag="51qaAFYJ_AlCVg1lBrpJ" version="21.7.5" type="github">
  <diagram id="C5RBs43oDa-KdzZeNtuy" name="Page-1">
    <mxGraphModel dx="2074" dy="1040" grid="1" gridSize="4" guides="1" tooltips="1" connect="1" arrows="1" fold="1" page="1" pageScale="1" pageWidth="827" pageHeight="1169" math="0" shadow="0">
      <root>
        <mxCell id="WIyWlLk6GJQsqaUBKTNV-0" />
        <mxCell id="WIyWlLk6GJQsqaUBKTNV-1" parent="WIyWlLk6GJQsqaUBKTNV-0" />
        <mxCell id="w68cGPtzdo0uaW1whRPq-4" style="edgeStyle=orthogonalEdgeStyle;rounded=0;orthogonalLoop=1;jettySize=auto;html=1;exitX=0.5;exitY=1;exitDx=0;exitDy=0;entryX=0.5;entryY=0;entryDx=0;entryDy=0;" edge="1" parent="WIyWlLk6GJQsqaUBKTNV-1" source="w68cGPtzdo0uaW1whRPq-0" target="w68cGPtzdo0uaW1whRPq-3">
          <mxGeometry relative="1" as="geometry" />
        </mxCell>
        <mxCell id="w68cGPtzdo0uaW1whRPq-0" value="Kafka Source" style="ellipse;whiteSpace=wrap;html=1;aspect=fixed;labelBackgroundColor=none;" vertex="1" parent="WIyWlLk6GJQsqaUBKTNV-1">
          <mxGeometry x="100" y="92" width="80" height="80" as="geometry" />
        </mxCell>
        <mxCell id="w68cGPtzdo0uaW1whRPq-2" value="MySQL Sink" style="whiteSpace=wrap;html=1;aspect=fixed;" vertex="1" parent="WIyWlLk6GJQsqaUBKTNV-1">
          <mxGeometry x="100" y="436" width="80" height="80" as="geometry" />
        </mxCell>
        <mxCell id="w68cGPtzdo0uaW1whRPq-5" style="edgeStyle=orthogonalEdgeStyle;rounded=0;orthogonalLoop=1;jettySize=auto;html=1;exitX=0.5;exitY=1;exitDx=0;exitDy=0;" edge="1" parent="WIyWlLk6GJQsqaUBKTNV-1" source="w68cGPtzdo0uaW1whRPq-3" target="w68cGPtzdo0uaW1whRPq-2">
          <mxGeometry relative="1" as="geometry" />
        </mxCell>
        <mxCell id="w68cGPtzdo0uaW1whRPq-3" value="窗口聚合" style="rounded=1;whiteSpace=wrap;html=1;" vertex="1" parent="WIyWlLk6GJQsqaUBKTNV-1">
          <mxGeometry x="80" y="272" width="120" height="60" as="geometry" />
        </mxCell>
        <mxCell id="w68cGPtzdo0uaW1whRPq-6" value="OperatorState存offset" style="text;html=1;strokeColor=none;fillColor=none;align=center;verticalAlign=middle;whiteSpace=wrap;rounded=0;" vertex="1" parent="WIyWlLk6GJQsqaUBKTNV-1">
          <mxGeometry x="196" y="144" width="148" height="32" as="geometry" />
        </mxCell>
        <mxCell id="w68cGPtzdo0uaW1whRPq-7" value="KeyedState（如ValueState)存聚合数据" style="text;html=1;strokeColor=none;fillColor=none;align=center;verticalAlign=middle;whiteSpace=wrap;rounded=0;" vertex="1" parent="WIyWlLk6GJQsqaUBKTNV-1">
          <mxGeometry x="192" y="284" width="148" height="32" as="geometry" />
        </mxCell>
        <mxCell id="w68cGPtzdo0uaW1whRPq-8" style="edgeStyle=orthogonalEdgeStyle;rounded=0;orthogonalLoop=1;jettySize=auto;html=1;exitX=0.5;exitY=1;exitDx=0;exitDy=0;entryX=0.5;entryY=0;entryDx=0;entryDy=0;" edge="1" parent="WIyWlLk6GJQsqaUBKTNV-1" source="w68cGPtzdo0uaW1whRPq-9" target="w68cGPtzdo0uaW1whRPq-12">
          <mxGeometry relative="1" as="geometry" />
        </mxCell>
        <mxCell id="w68cGPtzdo0uaW1whRPq-9" value="Kafka Source" style="ellipse;whiteSpace=wrap;html=1;aspect=fixed;labelBackgroundColor=none;" vertex="1" parent="WIyWlLk6GJQsqaUBKTNV-1">
          <mxGeometry x="672" y="100" width="80" height="80" as="geometry" />
        </mxCell>
        <mxCell id="w68cGPtzdo0uaW1whRPq-10" value="MySQL Sink" style="whiteSpace=wrap;html=1;aspect=fixed;" vertex="1" parent="WIyWlLk6GJQsqaUBKTNV-1">
          <mxGeometry x="588" y="496" width="80" height="80" as="geometry" />
        </mxCell>
        <mxCell id="w68cGPtzdo0uaW1whRPq-11" style="edgeStyle=orthogonalEdgeStyle;rounded=0;orthogonalLoop=1;jettySize=auto;html=1;exitX=0.5;exitY=1;exitDx=0;exitDy=0;" edge="1" parent="WIyWlLk6GJQsqaUBKTNV-1" source="w68cGPtzdo0uaW1whRPq-12" target="w68cGPtzdo0uaW1whRPq-10">
          <mxGeometry relative="1" as="geometry" />
        </mxCell>
        <mxCell id="w68cGPtzdo0uaW1whRPq-12" value="窗口聚合" style="rounded=1;whiteSpace=wrap;html=1;" vertex="1" parent="WIyWlLk6GJQsqaUBKTNV-1">
          <mxGeometry x="652" y="280" width="120" height="60" as="geometry" />
        </mxCell>
        <mxCell id="w68cGPtzdo0uaW1whRPq-13" value="OperatorState存offset" style="text;html=1;strokeColor=none;fillColor=none;align=center;verticalAlign=middle;whiteSpace=wrap;rounded=0;" vertex="1" parent="WIyWlLk6GJQsqaUBKTNV-1">
          <mxGeometry x="768" y="152" width="148" height="32" as="geometry" />
        </mxCell>
        <mxCell id="w68cGPtzdo0uaW1whRPq-14" value="KeyedState（如ValueState)存聚合数据" style="text;html=1;strokeColor=none;fillColor=none;align=center;verticalAlign=middle;whiteSpace=wrap;rounded=0;" vertex="1" parent="WIyWlLk6GJQsqaUBKTNV-1">
          <mxGeometry x="764" y="292" width="148" height="32" as="geometry" />
        </mxCell>
        <mxCell id="w68cGPtzdo0uaW1whRPq-18" style="edgeStyle=orthogonalEdgeStyle;rounded=0;orthogonalLoop=1;jettySize=auto;html=1;exitX=0.5;exitY=1;exitDx=0;exitDy=0;entryX=0.5;entryY=0;entryDx=0;entryDy=0;" edge="1" parent="WIyWlLk6GJQsqaUBKTNV-1" source="w68cGPtzdo0uaW1whRPq-15" target="w68cGPtzdo0uaW1whRPq-10">
          <mxGeometry relative="1" as="geometry" />
        </mxCell>
        <mxCell id="w68cGPtzdo0uaW1whRPq-15" value="窗口聚合" style="rounded=1;whiteSpace=wrap;html=1;" vertex="1" parent="WIyWlLk6GJQsqaUBKTNV-1">
          <mxGeometry x="484" y="280" width="120" height="60" as="geometry" />
        </mxCell>
        <mxCell id="w68cGPtzdo0uaW1whRPq-17" style="edgeStyle=orthogonalEdgeStyle;rounded=0;orthogonalLoop=1;jettySize=auto;html=1;exitX=0.5;exitY=1;exitDx=0;exitDy=0;entryX=0.5;entryY=0;entryDx=0;entryDy=0;" edge="1" parent="WIyWlLk6GJQsqaUBKTNV-1" source="w68cGPtzdo0uaW1whRPq-16" target="w68cGPtzdo0uaW1whRPq-15">
          <mxGeometry relative="1" as="geometry" />
        </mxCell>
        <mxCell id="w68cGPtzdo0uaW1whRPq-16" value="Kafka Source" style="ellipse;whiteSpace=wrap;html=1;aspect=fixed;labelBackgroundColor=none;" vertex="1" parent="WIyWlLk6GJQsqaUBKTNV-1">
          <mxGeometry x="504" y="104" width="80" height="80" as="geometry" />
        </mxCell>
        <mxCell id="w68cGPtzdo0uaW1whRPq-19" value="KeyBy" style="text;html=1;strokeColor=none;fillColor=none;align=center;verticalAlign=middle;whiteSpace=wrap;rounded=0;" vertex="1" parent="WIyWlLk6GJQsqaUBKTNV-1">
          <mxGeometry x="168" y="228" width="60" height="30" as="geometry" />
        </mxCell>
        <mxCell id="w68cGPtzdo0uaW1whRPq-20" value="KeyBy" style="text;html=1;strokeColor=none;fillColor=none;align=center;verticalAlign=middle;whiteSpace=wrap;rounded=0;" vertex="1" parent="WIyWlLk6GJQsqaUBKTNV-1">
          <mxGeometry x="552" y="236" width="60" height="30" as="geometry" />
        </mxCell>
        <mxCell id="w68cGPtzdo0uaW1whRPq-21" value="KeyBy" style="text;html=1;strokeColor=none;fillColor=none;align=center;verticalAlign=middle;whiteSpace=wrap;rounded=0;" vertex="1" parent="WIyWlLk6GJQsqaUBKTNV-1">
          <mxGeometry x="724" y="232" width="60" height="30" as="geometry" />
        </mxCell>
        <mxCell id="w68cGPtzdo0uaW1whRPq-22" value="" style="shape=flexArrow;endArrow=classic;html=1;rounded=0;width=11;endSize=6.74;" edge="1" parent="WIyWlLk6GJQsqaUBKTNV-1">
          <mxGeometry width="50" height="50" relative="1" as="geometry">
            <mxPoint x="348" y="280" as="sourcePoint" />
            <mxPoint x="416" y="280" as="targetPoint" />
          </mxGeometry>
        </mxCell>
      </root>
    </mxGraphModel>
  </diagram>
</mxfile>
